<svg xmlns="http://www.w3.org/2000/svg" viewBox="0 0 512 512">
  <defs>
    <linearGradient id="bg" x1="80" y1="40" x2="430" y2="470" gradientUnits="userSpaceOnUse">
      <stop offset="0" stop-color="#123d37"/>
      <stop offset="0.58" stop-color="#1f5650"/>
      <stop offset="1" stop-color="#d9912b"/>
    </linearGradient>
    <linearGradient id="page" x1="156" y1="126" x2="355" y2="392" gradientUnits="userSpaceOnUse">
      <stop offset="0" stop-color="#ffffff"/>
      <stop offset="1" stop-color="#e9f3ef"/>
    </linearGradient>
  </defs>
  <rect width="512" height="512" rx="104" fill="url(#bg)"/>
  <circle cx="402" cy="110" r="54" fill="#f3b24f" opacity=".95"/>
  <path d="M121 137c0-18 15-33 33-33h88c31 0 56 25 56 56v248H154c-18 0-33-15-33-33V137Z" fill="#f7fbfa"/>
  <path d="M214 104h144c18 0 33 15 33 33v238c0 18-15 33-33 33H214V104Z" fill="url(#page)"/>
  <path d="M256 123v267" stroke="#c8d8d4" stroke-width="12" stroke-linecap="round"/>
  <path d="M164 170h72M164 218h72M164 266h54" stroke="#1f5650" stroke-width="18" stroke-linecap="round"/>
  <path d="M300 176h42M300 224h42M300 272h42" stroke="#1f5650" stroke-width="18" stroke-linecap="round"/>
  <path d="M274 345l36 36 82-94" fill="none" stroke="#f3b24f" stroke-width="34" stroke-linecap="round" stroke-linejoin="round"/>
  <path d="M120 372h272" stroke="#102f2b" stroke-width="22" stroke-linecap="round" opacity=".22"/>
</svg>
